<svg width="24" height="24" viewBox="0 0 24 24" fill="none" xmlns="http://www.w3.org/2000/svg">
  <path d="M9.5 2C8.5 2 7.5 2.5 7 3.5C6.5 4.5 6.5 5.5 7 6.5C7.5 7.5 8.5 8 9.5 8C10.5 8 11.5 7.5 12 6.5C12.5 5.5 12.5 4.5 12 3.5C11.5 2.5 10.5 2 9.5 2Z" fill="currentColor"/>
  <path d="M14.5 2C13.5 2 12.5 2.5 12 3.5C11.5 4.5 11.5 5.5 12 6.5C12.5 7.5 13.5 8 14.5 8C15.5 8 16.5 7.5 17 6.5C17.5 5.5 17.5 4.5 17 3.5C16.5 2.5 15.5 2 14.5 2Z" fill="currentColor"/>
  <path d="M12 9C11 9 10 9.5 9.5 10.5C9 11.5 9 12.5 9.5 13.5C10 14.5 11 15 12 15C13 15 14 14.5 14.5 13.5C15 12.5 15 11.5 14.5 10.5C14 9.5 13 9 12 9Z" fill="currentColor"/>
  <path d="M8 16C7 16 6 16.5 5.5 17.5C5 18.5 5 19.5 5.5 20.5C6 21.5 7 22 8 22C9 22 10 21.5 10.5 20.5C11 19.5 11 18.5 10.5 17.5C10 16.5 9 16 8 16Z" fill="currentColor"/>
  <path d="M16 16C15 16 14 16.5 13.5 17.5C13 18.5 13 19.5 13.5 20.5C14 21.5 15 22 16 22C17 22 18 21.5 18.5 20.5C19 19.5 19 18.5 18.5 17.5C18 16.5 17 16 16 16Z" fill="currentColor"/>
</svg>
