<svg width="24" height="24" viewBox="0 0 24 24" fill="none" xmlns="http://www.w3.org/2000/svg">
  <rect x="3" y="3" width="5" height="5" fill="currentColor"/>
  <rect x="3" y="10" width="5" height="5" fill="currentColor"/>
  <rect x="10" y="3" width="5" height="5" fill="currentColor"/>
  <rect x="10" y="10" width="2" height="2" fill="currentColor"/>
  <rect x="13" y="10" width="2" height="2" fill="currentColor"/>
  <rect x="10" y="13" width="2" height="2" fill="currentColor"/>
  <rect x="13" y="13" width="2" height="2" fill="currentColor"/>
  <rect x="16" y="3" width="5" height="5" fill="currentColor"/>
  <rect x="16" y="10" width="2" height="2" fill="currentColor"/>
  <rect x="19" y="10" width="2" height="2" fill="currentColor"/>
  <rect x="16" y="13" width="2" height="2" fill="currentColor"/>
  <rect x="19" y="13" width="2" height="2" fill="currentColor"/>
  <rect x="3" y="16" width="5" height="5" fill="currentColor"/>
  <rect x="10" y="16" width="2" height="2" fill="currentColor"/>
  <rect x="13" y="16" width="2" height="2" fill="currentColor"/>
  <rect x="16" y="16" width="2" height="2" fill="currentColor"/>
  <rect x="19" y="16" width="2" height="2" fill="currentColor"/>
</svg>
