<svg width="24" height="24" viewBox="0 0 24 24" fill="none" xmlns="http://www.w3.org/2000/svg">
  <path d="M3 19C3 20.1046 3.89543 21 5 21C6.10457 21 7 20.1046 7 19C7 17.8954 6.10457 17 5 17C3.89543 17 3 17.8954 3 19Z" fill="currentColor"/>
  <path d="M17 5C17 6.10457 17.8954 7 19 7C20.1046 7 21 6.10457 21 5C21 3.89543 20.1046 3 19 3C17.8954 3 17 3.89543 17 5Z" fill="currentColor"/>
  <path d="M7 19H17" stroke="currentColor" stroke-width="2" stroke-linecap="round" stroke-linejoin="round"/>
  <path d="M17 5H7" stroke="currentColor" stroke-width="2" stroke-linecap="round" stroke-linejoin="round"/>
  <path d="M7 5L17 19" stroke="currentColor" stroke-width="2" stroke-linecap="round" stroke-linejoin="round"/>
</svg>
